<svg width="32" height="32" viewBox="0 0 32 32" fill="none" xmlns="http://www.w3.org/2000/svg">
<g id="Icons16/File">
<path id="Icons16/File" fill-rule="evenodd" clip-rule="evenodd" d="M4.625 3H10.3755C11.3628 3 12.2965 3.44879 12.9133 4.21974L14.6996 6.45263C15.008 6.8381 15.4749 7.0625 15.9685 7.0625H27.375C28.2725 7.0625 29 7.79004 29 8.6875V27.375C29 28.2725 28.2725 29 27.375 29H4.625C3.72754 29 3 28.2725 3 27.375V4.625C3 3.72754 3.72754 3 4.625 3ZM5.4375 16.8125V26.5625H26.5625V16.8125H5.4375ZM5.4375 14.375H26.5625V9.5H15.9685C14.7344 9.5 13.5672 8.93901 12.7962 7.97532L11.0099 5.74244C10.8557 5.5497 10.6223 5.4375 10.3755 5.4375H5.4375V14.375Z" fill="#75787F"/>
</g>
</svg>
