<?xml version="1.0" encoding="utf-8"?>
<!-- Svg Vector Icons : http://www.onlinewebfonts.com/icon -->
<!DOCTYPE svg PUBLIC "-//W3C//DTD SVG 1.1//EN" "http://www.w3.org/Graphics/SVG/1.1/DTD/svg11.dtd">
<svg fill="#75787F" width="20" height="20" version="1.1" xmlns="http://www.w3.org/2000/svg" xmlns:xlink="http://www.w3.org/1999/xlink" x="0px" y="0px" viewBox="0 0 1000 1000" enable-background="new 0 0 1000 1000" xml:space="preserve">
<metadata> Svg Vector Icons : http://www.onlinewebfonts.com/icon </metadata>
<g><path  d="M578.3,928.7h-476c-8.3,0-15.3-7-15.3-15.3V86.6c0-8.3,7-15.3,15.3-15.3c0,0,474.7,0,474.7,0v214.4c0,16.9,13.7,30.6,30.6,30.6h214.4l0,242.4c22.3,3.9,42.5,10.6,60.7,19.6c0.2,0.1,0.4,0.1,0.6,0.2V316.2c0-13.7-4.2-37.6-40.4-87c-21.3-29-50.9-62.9-83.4-95.5C726.8,101.3,693,71.7,664,50.4C614.6,14.2,590.7,10,577,10H102.3c-42.2,0-76.6,34.3-76.6,76.6v826.8c0,42.2,34.4,76.6,76.6,76.6h530.1C610.2,973.1,592.3,952.1,578.3,928.7z M638.2,107.7c22,17,48.5,40.1,77.9,69.5c29.4,29.4,52.4,55.9,69.4,77.9H638.2L638.2,107.7L638.2,107.7z"/><path d="M528.2,712.6H230.7c-11.7,0-21.2-13.7-21.2-30.6c0-16.9,9.5-30.6,21.2-30.6h297.5c11.7,0,21.2,13.7,21.2,30.6C549.4,698.8,539.9,712.6,528.2,712.6z"/><path d="M668.8,498.2H240.1c-16.9,0-30.6-13.7-30.6-30.6c0-16.9,13.7-30.6,30.6-30.6h428.7c16.9,0,30.6,13.7,30.6,30.6C699.5,484.5,685.7,498.2,668.8,498.2z"/><path d="M639.1,633L639.1,633L639.1,633z"/><path d="M770.9,583.2c-112.3,0-203.4,91-203.4,203.4c0,112.3,91,203.4,203.4,203.4c112.3,0,203.4-91,203.4-203.4C974.3,674.3,883.2,583.2,770.9,583.2z M881.5,818.1h-79.1l0,79.1c0,17.4-14.1,31.5-31.5,31.5c-17.5,0-31.5-14.1-31.5-31.5l0-79.1h-79.1c-17.4,0-31.5-14.1-31.5-31.5c0-17.4,14.1-31.5,31.5-31.5h79.1V676c0-17.4,14.1-31.5,31.5-31.5c17.4,0,31.6,14.1,31.5,31.5l0,79.1h79.1c17.4,0,31.5,14.1,31.5,31.5C913.1,804,898.9,818.2,881.5,818.1z"/></g>
</svg>