<svg width="25" height="26" viewBox="0 0 25 26" fill="none" xmlns="http://www.w3.org/2000/svg">
<g id="add">
<path id="Vector" d="M13.2812 4.79688C13.2812 4.48607 13.1578 4.188 12.938 3.96823C12.7182 3.74846 12.4202 3.625 12.1094 3.625C11.7986 3.625 11.5005 3.74846 11.2807 3.96823C11.061 4.188 10.9375 4.48607 10.9375 4.79688V11.4375H4.29688C3.98607 11.4375 3.688 11.561 3.46823 11.7807C3.24846 12.0005 3.125 12.2986 3.125 12.6094C3.125 12.9202 3.24846 13.2182 3.46823 13.438C3.688 13.6578 3.98607 13.7812 4.29688 13.7812H10.9375V20.4219C10.9375 20.7327 11.061 21.0307 11.2807 21.2505C11.5005 21.4703 11.7986 21.5938 12.1094 21.5938C12.4202 21.5938 12.7182 21.4703 12.938 21.2505C13.1578 21.0307 13.2812 20.7327 13.2812 20.4219V13.7812H19.9219C20.2327 13.7812 20.5307 13.6578 20.7505 13.438C20.9703 13.2182 21.0938 12.9202 21.0938 12.6094C21.0938 12.2986 20.9703 12.0005 20.7505 11.7807C20.5307 11.561 20.2327 11.4375 19.9219 11.4375H13.2812V4.79688Z" fill="#FAFAFA"/>
</g>
</svg>
