<svg width="32" height="32" viewBox="0 0 32 32" fill="none" xmlns="http://www.w3.org/2000/svg">
<g id="Icons30/back ">
<path id="Vector" d="M25.601 17.042L8.97112 17.042L13.7224 21.6882C14.1386 22.095 14.1386 22.7548 13.7224 23.1615C13.3062 23.5686 12.6313 23.5686 12.2157 23.1615L5.64543 16.7369C5.22919 16.3301 5.22919 15.6702 5.64543 15.2636L12.2157 8.83865C12.4238 8.63509 12.6964 8.53346 12.9691 8.53346C13.2417 8.53346 13.5143 8.63509 13.7224 8.83865C14.1386 9.24542 14.1386 9.90528 13.7224 10.3119L8.97112 14.9583L25.601 14.9583C26.1894 14.9583 26.6666 15.4249 26.6666 16.0002C26.6666 16.5756 26.1895 17.042 25.601 17.042Z" fill="#75787F"/>
</g>
</svg>
