<svg width="32" height="32" viewBox="0 0 32 32" fill="none" xmlns="http://www.w3.org/2000/svg">
<g id="Icons16/Calendar">
<path id="Icons/Calendar" fill-rule="evenodd" clip-rule="evenodd" d="M9.5 3.75C9.5 3.33579 9.83579 3 10.25 3H11.1875C11.6017 3 11.9375 3.33579 11.9375 3.75V8.75C11.9375 9.16421 11.6017 9.5 11.1875 9.5H10.25C9.83579 9.5 9.5 9.16421 9.5 8.75V3.75ZM13.5625 5.4375H18.4375V7.875H13.5625V5.4375ZM26.5625 7.875H24.125V5.4375H27.375C28.2725 5.4375 29 6.16504 29 7.0625V11.9375V14.375V27.375C29 28.2725 28.2725 29 27.375 29H4.625C3.72754 29 3 28.2725 3 27.375V7.0625C3 6.16504 3.72754 5.4375 4.625 5.4375H7.875V7.875H5.4375V11.9375H26.5625V7.875ZM26.5625 14.375H5.4375V26.5625H26.5625V14.375ZM20.8125 3C20.3983 3 20.0625 3.33579 20.0625 3.75V8.75C20.0625 9.16421 20.3983 9.5 20.8125 9.5H21.75C22.1642 9.5 22.5 9.16421 22.5 8.75V3.75C22.5 3.33579 22.1642 3 21.75 3H20.8125Z" fill="#75787F"/>
</g>
</svg>
