<svg width="32" height="32" viewBox="0 0 32 32" fill="none" xmlns="http://www.w3.org/2000/svg">
<g id="Icons16/Charts">
<path id="Union" fill-rule="evenodd" clip-rule="evenodd" d="M17.35 3C16.735 3 16.2407 3.49351 16.2407 4.10749V14.631C16.2407 15.245 16.735 15.7385 17.35 15.7385H27.8907C28.5057 15.7385 29 15.245 29 14.631L29 14.5925C28.989 11.7697 27.953 9.05035 26.0845 6.93334C23.871 4.43345 20.6928 3 17.35 3ZM14.4429 6.15152C8.13435 6.15152 3 11.2775 3 17.5758C3 23.874 8.13435 29 14.4429 29C20.7514 29 25.8857 23.874 25.8857 17.5758C25.8857 16.9743 25.392 16.4814 24.7896 16.4814H15.539V7.24587C15.539 6.63919 15.0505 6.15152 14.4429 6.15152ZM5.19228 17.5758C5.19228 12.8538 8.75941 8.94624 13.3467 8.40522V17.5758C13.3467 18.1824 13.8352 18.6701 14.4429 18.6701H23.6283C23.0864 23.25 19.1725 26.8113 14.4429 26.8113C9.34451 26.8113 5.19228 22.6658 5.19228 17.5758ZM18.0647 13.9228V4.85277C20.6165 5.03776 23.0094 6.21644 24.7142 8.14567C26.1436 9.75777 26.9907 11.7874 27.1495 13.9228H18.0647Z" fill="#75787F"/>
</g>
</svg>
