<svg width="32" height="32" viewBox="0 0 32 32" fill="none" xmlns="http://www.w3.org/2000/svg">
<g id="Icons18/Close">
<path id="Vector (Stroke)" fill-rule="evenodd" clip-rule="evenodd" d="M3.50507 3.50483C3.77844 3.23146 4.22166 3.23146 4.49502 3.50483L14.495 13.5048C14.7684 13.7782 14.7684 14.2214 14.495 14.4948C14.2217 14.7681 13.7784 14.7681 13.5051 14.4948L3.50507 4.49478C3.23171 4.22141 3.23171 3.7782 3.50507 3.50483Z" fill="#75787F"/>
<path id="Vector (Stroke)_2" fill-rule="evenodd" clip-rule="evenodd" d="M3.50507 14.4952C3.77844 14.7685 4.22166 14.7685 4.49502 14.4952L14.495 4.49517C14.7684 4.2218 14.7684 3.77859 14.495 3.50522C14.2217 3.23185 13.7784 3.23185 13.5051 3.50522L3.50507 13.5052C3.23171 13.7786 3.23171 14.2218 3.50507 14.4952Z" fill="#75787F"/>
</g>
</svg>
