<svg width="32" height="32" viewBox="0 0 32 32" fill="none" xmlns="http://www.w3.org/2000/svg">
<g id="Icons20/Color">
<g id="Group">
<path id="Vector" d="M26.0012 13.7579C25.2118 12.9685 24.362 12.6009 23.3266 12.6009C22.9 12.6009 22.4956 12.66 22.1046 12.7173C21.7535 12.7687 21.4219 12.8172 21.1084 12.8173C20.5384 12.8173 20.1299 12.652 19.7423 12.2644C19.0457 11.5679 19.1534 10.833 19.2896 9.90256C19.452 8.79258 19.6542 7.41125 18.2487 6.00578C17.453 5.21012 16.3688 4.80664 15.0264 4.80664C12.4558 4.80664 9.62494 6.29245 8.15718 7.76012C5.99899 9.91821 4.80673 12.7837 4.79983 15.8289C4.79294 18.8747 5.9728 21.7357 8.12196 23.8848C10.2639 26.0267 13.1157 27.2064 16.152 27.2066C16.1524 27.2066 16.1525 27.2066 16.1529 27.2066C19.2073 27.2066 22.0818 26.0144 24.2466 23.8496C25.4346 22.6617 26.462 20.7996 26.9278 18.9899C27.4963 16.782 27.1672 14.9239 26.0012 13.7579ZM26.1269 18.7836C25.7023 20.4328 24.7348 22.1916 23.662 23.2643C21.6531 25.2731 18.9866 26.3792 16.1528 26.3792C16.1527 26.3792 16.1522 26.3792 16.1521 26.3792C13.3366 26.379 10.6925 25.2853 8.70658 23.2995C6.71437 21.3073 5.6206 18.6548 5.62694 15.8307C5.63328 13.006 6.73953 10.3476 8.74173 8.34551C10.0562 7.03107 12.7055 5.63423 15.0263 5.63423C16.1415 5.63423 17.029 5.9562 17.664 6.59118C18.7756 7.70267 18.6277 8.713 18.4711 9.78263C18.3287 10.7561 18.1672 11.8594 19.1576 12.8498C19.7001 13.3923 20.32 13.6449 21.1085 13.6448C21.4821 13.6447 21.8594 13.5895 22.2243 13.5361C22.586 13.4832 22.9602 13.4284 23.3266 13.4284C23.8737 13.4284 24.6056 13.5324 25.4165 14.3433C26.699 15.6257 26.4121 17.6758 26.1269 18.7836Z" fill="#75787F" stroke="#75787F" stroke-width="0.4"/>
<circle id="Ellipse" cx="12.4999" cy="11.101" r="2.1" stroke="#75787F"/>
<circle id="Ellipse_2" cx="9.69985" cy="18.101" r="2.1" stroke="#75787F"/>
<circle id="Ellipse_3" cx="15.2999" cy="22.3012" r="2.1" stroke="#75787F"/>
<circle id="Ellipse_4" cx="20.8998" cy="18.101" r="2.1" stroke="#75787F"/>
</g>
</g>
</svg>
