<svg width="32" height="32" viewBox="0 0 32 32" fill="none" xmlns="http://www.w3.org/2000/svg">
<g id="Icons20/Delete">
<g id="126468">
<path id="Shape" fill-rule="evenodd" clip-rule="evenodd" d="M24.9435 8.35744H20.4779V7.62934C20.4779 6.3276 19.4188 5.26855 18.1171 5.26855H13.8721C12.5703 5.26855 11.5113 6.3276 11.5113 7.62934V8.35744H7.04566C6.71471 8.35744 6.44995 8.6222 6.44995 8.95315C6.44995 9.2841 6.71471 9.54886 7.04566 9.54886H8.12236V23.5459C8.12236 25.3022 9.55207 26.7319 11.3083 26.7319H20.6809C22.4371 26.7319 23.8668 25.3022 23.8668 23.5459V9.54886H24.9435C25.2745 9.54886 25.5392 9.2841 25.5392 8.95315C25.5392 8.6222 25.2745 8.35744 24.9435 8.35744ZM12.7027 7.62934C12.7027 6.98508 13.2279 6.45997 13.8721 6.45997H18.1171C18.7614 6.45997 19.2865 6.98508 19.2865 7.62934V8.35743H12.7027V7.62934ZM20.6809 25.5404C21.7797 25.5404 22.6754 24.6447 22.6754 23.5459H22.6798V9.54885H9.31381V23.5459C9.31381 24.6447 10.2096 25.5404 11.3083 25.5404H20.6809Z" fill="#75787F"/>
<path id="Shape (Stroke)" fill-rule="evenodd" clip-rule="evenodd" d="M22.4071 23.2773H22.4115V9.81688H9.58208V23.5456C9.58208 24.4962 10.3577 25.2719 11.3083 25.2719H20.6809C21.6315 25.2719 22.4071 24.4962 22.4071 23.5456V23.2773ZM20.7462 8.08888H24.9435C25.4226 8.08888 25.8075 8.47376 25.8075 8.95289C25.8075 9.43201 25.4226 9.81689 24.9435 9.81689H24.1351V23.5456C24.1351 25.4501 22.5853 26.9999 20.6808 26.9999H11.3083C9.40388 26.9999 7.85405 25.4501 7.85405 23.5456V9.81689H7.04564C6.56652 9.81689 6.18164 9.43201 6.18164 8.95289C6.18164 8.47376 6.56652 8.08888 7.04564 8.08888H11.243V7.62908C11.243 6.17916 12.4222 5 13.8721 5H18.1171C19.567 5 20.7462 6.17916 20.7462 7.62908V8.08888ZM24.9435 8.35717C25.2745 8.35717 25.5392 8.62193 25.5392 8.95289C25.5392 9.28384 25.2745 9.5486 24.9435 9.5486H23.8668V23.5456C23.8668 25.3019 22.4371 26.7316 20.6808 26.7316H11.3083C9.55205 26.7316 8.12234 25.3019 8.12234 23.5456V9.5486H7.04564C6.71469 9.5486 6.44993 9.28384 6.44993 8.95289C6.44993 8.62193 6.71469 8.35717 7.04564 8.35717H11.5113V7.62908C11.5113 6.32734 12.5703 5.26829 13.8721 5.26829H18.1171C19.4188 5.26829 20.4779 6.32734 20.4779 7.62908V8.35717H24.9435ZM13.8721 6.728C13.376 6.728 12.971 7.13299 12.971 7.62907V8.08888H19.0182V7.62907C19.0182 7.133 18.6132 6.728 18.1171 6.728H13.8721ZM19.2865 7.62907C19.2865 6.98482 18.7613 6.45971 18.1171 6.45971H13.8721C13.2278 6.45971 12.7027 6.98482 12.7027 7.62907V8.35717H19.2865V7.62907ZM22.6754 23.5456C22.6754 24.6444 21.7796 25.5402 20.6809 25.5402H11.3083C10.2096 25.5402 9.31379 24.6444 9.31379 23.5456V9.54858H22.6798V23.5456H22.6754Z" fill="#75787F"/>
<path id="Path" fill-rule="evenodd" clip-rule="evenodd" d="M15.9949 23.4047C16.3258 23.4047 16.5906 23.1399 16.5906 22.809V12.2803C16.5906 11.9493 16.3258 11.6846 15.9949 11.6846C15.6639 11.6846 15.3992 11.9493 15.3992 12.2803V22.8045C15.3992 23.1355 15.6639 23.4047 15.9949 23.4047Z" fill="#75787F"/>
<path id="Path (Stroke)" fill-rule="evenodd" clip-rule="evenodd" d="M16.8589 22.8087C16.8589 23.2878 16.474 23.6727 15.9949 23.6727C15.5132 23.6727 15.1309 23.2808 15.1309 22.8043V12.28C15.1309 11.8009 15.5157 11.416 15.9949 11.416C16.474 11.416 16.8589 11.8009 16.8589 12.28V22.8087ZM16.5906 22.8087C16.5906 23.1396 16.3258 23.4044 15.9949 23.4044C15.6639 23.4044 15.3992 23.1352 15.3992 22.8043V12.28C15.3992 11.9491 15.6639 11.6843 15.9949 11.6843C16.3258 11.6843 16.5906 11.9491 16.5906 12.28V22.8087Z" fill="#75787F"/>
<path id="Path_2" fill-rule="evenodd" clip-rule="evenodd" d="M12.1069 22.7464C12.4379 22.7464 12.7027 22.4817 12.7027 22.1507V12.9326C12.7027 12.6017 12.4379 12.3369 12.1069 12.3369C11.776 12.3369 11.5112 12.6017 11.5112 12.9326V22.1507C11.5112 22.4817 11.7804 22.7464 12.1069 22.7464Z" fill="#75787F"/>
<path id="Path (Stroke)_2" fill-rule="evenodd" clip-rule="evenodd" d="M12.9709 22.1514C12.9709 22.6306 12.586 23.0154 12.1069 23.0154C11.6335 23.0154 11.2429 22.6319 11.2429 22.1514V12.9333C11.2429 12.4542 11.6278 12.0693 12.1069 12.0693C12.586 12.0693 12.9709 12.4542 12.9709 12.9333V22.1514ZM12.7026 22.1514C12.7026 22.4824 12.4379 22.7472 12.1069 22.7472C11.7804 22.7472 11.5112 22.4824 11.5112 22.1514V12.9333C11.5112 12.6024 11.776 12.3376 12.1069 12.3376C12.4379 12.3376 12.7026 12.6024 12.7026 12.9333V22.1514Z" fill="#75787F"/>
<path id="Path_3" fill-rule="evenodd" clip-rule="evenodd" d="M19.8821 22.7464C20.213 22.7464 20.4778 22.4817 20.4778 22.1507V12.9326C20.4778 12.6017 20.213 12.3369 19.8821 12.3369C19.5511 12.3369 19.2864 12.6017 19.2864 12.9326V22.1507C19.2864 22.4817 19.5511 22.7464 19.8821 22.7464Z" fill="#75787F"/>
<path id="Path (Stroke)_3" fill-rule="evenodd" clip-rule="evenodd" d="M20.7461 22.1514C20.7461 22.6306 20.3612 23.0154 19.8821 23.0154C19.4029 23.0154 19.0181 22.6306 19.0181 22.1514V12.9333C19.0181 12.4542 19.4029 12.0693 19.8821 12.0693C20.3612 12.0693 20.7461 12.4542 20.7461 12.9333V22.1514ZM20.4778 22.1514C20.4778 22.4824 20.213 22.7472 19.8821 22.7472C19.5511 22.7472 19.2864 22.4824 19.2864 22.1514V12.9333C19.2864 12.6024 19.5511 12.3376 19.8821 12.3376C20.213 12.3376 20.4778 12.6024 20.4778 12.9333V22.1514Z" fill="#75787F"/>
</g>
</g>
</svg>
