<svg width="24" height="24" viewBox="0 0 24 24" fill="#e2e7f1" xmlns="http://www.w3.org/2000/svg">
<g id="Edit">
<g id="Ellipse">
<circle cx="12" cy="12" r="12" fill="#ECEFF3"/>
<circle cx="12" cy="12" r="12" stroke="#eceff3"/>
</g>
<path id="Union" fill-rule="evenodd" clip-rule="evenodd" d="M16.9532 6.58601C16.1718 5.80466 14.9049 5.80466 14.1235 6.58601L7.10573 13.6031C7.02943 13.6794 6.97431 13.774 6.94555 13.8778L6.02274 17.2091C5.96248 17.426 6.02405 17.6583 6.18284 17.8173C6.34188 17.9761 6.57399 18.0373 6.79075 17.9774L10.1225 17.0544C10.2263 17.0257 10.3209 16.9706 10.3972 16.8943L17.415 9.87685C18.1951 9.09508 18.1949 7.82933 17.4148 7.04755L16.9532 6.58601ZM15.0065 7.46856C15.3003 7.17473 15.7768 7.17473 16.0707 7.46856L16.5322 7.92987C16.8258 8.22423 16.8257 8.70053 16.5322 8.99469L16.2784 9.24845L14.7524 7.72254L15.0065 7.46856ZM8.45229 14.022L13.8694 8.60521L15.3953 10.131L9.97809 15.5477L8.45229 14.022ZM7.52027 16.4801L7.87288 15.2074L8.79294 16.1275L7.52027 16.4801Z" fill="#A0A0A0"/>
</g>
</svg>
