<svg width="26" height="26" viewBox="0 0 26 26" fill="none" xmlns="http://www.w3.org/2000/svg">
<g id="eye-open" clip-path="url(#clip0_11439_581)">
<g id="Group">
<path id="Vector" d="M25.5143 12.0144C24.1808 9.83343 22.3878 8.08105 20.1356 6.75728C17.8832 5.43347 15.5047 4.77148 13 4.77148C10.4952 4.77148 8.11663 5.43322 5.86424 6.75728C3.61179 8.08105 1.81888 9.83343 0.48556 12.0144C0.295171 12.3477 0.199951 12.6763 0.199951 13.0001C0.199951 13.324 0.295171 13.6526 0.48556 13.9858C1.81888 16.1669 3.61179 17.9194 5.86424 19.2429C8.11663 20.5668 10.4952 21.2283 13 21.2283C15.5048 21.2283 17.8832 20.569 20.1356 19.2501C22.3878 17.931 24.1811 16.1762 25.5143 13.9858C25.7048 13.6526 25.8 13.3242 25.8 13.0001C25.8 12.6763 25.7048 12.3477 25.5143 12.0144ZM9.93546 8.10717C10.7878 7.25485 11.8092 6.82854 12.9998 6.82854C13.1902 6.82854 13.3522 6.89539 13.4856 7.02863C13.6188 7.16193 13.6858 7.3239 13.6858 7.51434C13.6858 7.70493 13.6188 7.8668 13.4859 7.99989C13.3527 8.13334 13.1906 8.19999 13.0002 8.19999C12.1812 8.19999 11.4809 8.4906 10.9001 9.07142C10.319 9.6526 10.0286 10.3525 10.0286 11.1715C10.0286 11.3622 9.96178 11.524 9.82853 11.6574C9.69509 11.7909 9.53327 11.8575 9.34283 11.8575C9.15224 11.8575 8.99037 11.7907 8.85698 11.6574C8.72353 11.524 8.65688 11.362 8.65688 11.1715C8.65688 9.98114 9.08319 8.95954 9.93546 8.10717ZM19.2072 17.6647C17.2976 18.8215 15.2286 19.4003 13 19.4003C10.7714 19.4003 8.70236 18.8218 6.79287 17.6647C4.88337 16.5075 3.29526 14.9527 2.02864 13.0001C3.47624 10.7525 5.29052 9.07138 7.47146 7.95731C6.89054 8.94763 6.59998 10.0192 6.59998 11.1715C6.59998 12.9335 7.22628 14.4403 8.47855 15.6929C9.73081 16.9454 11.2381 17.5714 13 17.5714C14.7619 17.5714 16.2688 16.9451 17.5214 15.6929C18.7739 14.4406 19.4 12.9335 19.4 11.1715C19.4 10.0192 19.1094 8.94748 18.5284 7.95731C20.7092 9.07138 22.5236 10.7526 23.9712 13.0001C22.7047 14.9527 21.1168 16.5075 19.2072 17.6647Z" fill="#75787F"/>
</g>
</g>
<defs>
<clipPath id="clip0_11439_581">
<rect width="25.6" height="25.6" fill="white" transform="translate(0.199951 0.200195)"/>
</clipPath>
</defs>
</svg>
