<svg width="2rem" height="2rem" viewBox="0 0 32 32" fill="none" xmlns="http://www.w3.org/2000/svg">
<path fill-rule="evenodd" clip-rule="evenodd" d="M7.99678 17.3048C8.21434 17.2001 8.38252 17.0147 8.46556 16.788L8.47855 16.7546C8.49617 16.706 8.51473 16.6578 8.5342 16.6099C8.89812 15.7768 9.39637 15.0091 10.0091 14.3374C11.1407 13.1037 12.9903 11.8552 15.9344 11.8552C18.8786 11.8552 20.7282 13.1037 21.8598 14.3374C22.3349 14.8569 22.7419 15.4348 23.0712 16.0571C23.1906 16.2834 23.2971 16.5163 23.3903 16.7546L23.4033 16.7843V16.7899C23.4819 17.0223 23.6495 17.2141 23.8692 17.3233C24.089 17.4325 24.343 17.4501 24.5757 17.3724C25.366 17.1108 25.2102 16.4931 25.2102 16.4931C25.206 16.4818 25.1964 16.4322 25.1848 16.3717C25.1811 16.3523 25.1771 16.3319 25.1731 16.3112C25.1708 16.2995 25.1684 16.2878 25.1661 16.2761C25.1501 16.1954 25.1351 16.1201 25.1286 16.1072C25.11 16.0552 25.0822 15.9847 25.0451 15.8975C24.5991 14.8652 23.9847 13.9142 23.227 13.0833C21.8079 11.5342 19.4833 10 15.9344 10C12.3874 10 10.0629 11.5342 8.63994 13.0833C7.9387 13.8495 7.46006 14.6156 7.15582 15.1907C7.00555 15.4783 6.8961 15.7213 6.82189 15.8975C6.77834 15.9957 6.73995 16.096 6.70687 16.1981C6.70687 16.1981 6.68832 16.2556 6.70687 16.1999C6.63684 16.431 6.65966 16.6803 6.77049 16.8948C6.88132 17.1093 7.07143 17.2721 7.30041 17.3487C7.52939 17.4253 7.77921 17.4095 7.99678 17.3048ZM13.311 14.7977C12.6152 15.4935 12.2242 16.4372 12.2242 17.4213C12.2242 18.4053 12.6152 19.349 13.311 20.0448C14.0068 20.7407 14.9505 21.1316 15.9346 21.1316C16.9186 21.1316 17.8623 20.7407 18.5581 20.0448C19.254 19.349 19.6449 18.4053 19.6449 17.4213C19.6449 16.4372 19.254 15.4935 18.5581 14.7977C17.8623 14.1018 16.9186 13.7109 15.9346 13.7109C14.9505 13.7109 14.0068 14.1018 13.311 14.7977Z" fill="#4F5557"/>
</svg>
