<svg width="29" height="29" viewBox="0 0 29 29" fill="none" xmlns="http://www.w3.org/2000/svg">
<g id="Icons18/GroupSearch">
<path id="Shape" fill-rule="evenodd" clip-rule="evenodd" d="M19.4364 18.2886L24.9581 24.0314C25.4252 24.5173 25.4097 25.2919 24.9243 25.759C24.6958 25.9789 24.3948 26.0999 24.0776 26.0999C23.7424 26.0999 23.4296 25.9667 23.1971 25.7252L17.6335 19.9389C16.0537 21.0491 14.206 21.6339 12.267 21.6339C7.10214 21.6339 2.90002 17.4318 2.90002 12.2669C2.90002 7.10202 7.10214 2.8999 12.267 2.8999C17.4319 2.8999 21.634 7.10202 21.634 12.2669C21.634 14.4775 20.8561 16.601 19.4364 18.2886ZM19.1905 12.2669C19.1905 8.44924 16.0847 5.34348 12.2671 5.34348C8.4494 5.34348 5.34363 8.44924 5.34363 12.2669C5.34363 16.0846 8.4494 19.1903 12.2671 19.1903C16.0847 19.1903 19.1905 16.0846 19.1905 12.2669Z" fill="#75787F"/>
</g>
</svg>
