<svg width="14" height="15" viewBox="0 0 14 15" fill="none" xmlns="http://www.w3.org/2000/svg">
<path d="M10.2968 2.29647V3.3949C10.2968 3.4699 10.3297 3.54022 10.3875 3.58709C10.5203 3.69647 10.6484 3.81365 10.7703 3.93709C11.2756 4.44195 11.6784 5.03995 11.9562 5.69803C12.2442 6.37982 12.3919 7.11261 12.3906 7.85272C12.3906 8.60115 12.2437 9.32615 11.9562 10.0074C11.6784 10.6655 11.2756 11.2635 10.7703 11.7683C10.2666 12.2741 9.66966 12.6774 9.01246 12.9558C8.33121 13.2449 7.60778 13.3902 6.85934 13.3902C6.1109 13.3902 5.38746 13.2433 4.70621 12.9558C4.0484 12.6777 3.45621 12.2777 2.9484 11.7683C2.44059 11.259 2.04059 10.6668 1.76246 10.0074C1.47496 9.32615 1.32809 8.60115 1.32809 7.85272C1.32809 7.10428 1.4734 6.37928 1.76246 5.69803C2.04059 5.03865 2.44059 4.44647 2.9484 3.93709C3.07184 3.81365 3.19996 3.69803 3.33121 3.58709C3.38903 3.54022 3.42184 3.46834 3.42184 3.3949V2.29647C3.42184 2.19803 3.31246 2.13709 3.22965 2.19178C1.36715 3.39022 0.134338 5.48709 0.140588 7.8699C0.149963 11.6137 3.18903 14.6152 6.92809 14.5777C10.6078 14.5402 13.5781 11.5433 13.5781 7.85272C13.5781 5.47615 12.3468 3.38865 10.489 2.19178C10.4062 2.13865 10.2968 2.19803 10.2968 2.29647ZM6.7609 0.907404L5.0109 3.12459C4.94528 3.2074 5.00465 3.32772 5.10934 3.32772H6.29684L6.29684 8.23397C6.29684 8.30272 6.35309 8.35897 6.42184 8.35897H7.29684C7.36559 8.35897 7.42184 8.30272 7.42184 8.23397L7.42184 3.32772H8.60934C8.71403 3.32772 8.7734 3.20584 8.70778 3.12459L6.95778 0.907404C6.94608 0.892464 6.93114 0.880381 6.91409 0.872071C6.89703 0.863762 6.87831 0.859444 6.85934 0.859444C6.84037 0.859444 6.82164 0.863762 6.80459 0.872071C6.78753 0.880381 6.77259 0.892464 6.7609 0.907404Z" fill="black"/>
</svg>
