<svg width="32" height="32" viewBox="0 0 32 32" fill="none" xmlns="http://www.w3.org/2000/svg">
<g id="Icons20/More">
<path id="Union" fill-rule="evenodd" clip-rule="evenodd" d="M17.6001 22.4C17.6001 21.5163 16.8838 20.8 16.0001 20.8C15.1165 20.8 14.4001 21.5163 14.4001 22.4C14.4001 23.2837 15.1165 24 16.0001 24C16.8838 24 17.6001 23.2837 17.6001 22.4ZM17.6001 16C17.6001 15.1163 16.8838 14.4 16.0001 14.4C15.1165 14.4 14.4001 15.1163 14.4001 16C14.4001 16.8836 15.1165 17.6 16.0001 17.6C16.8838 17.6 17.6001 16.8836 17.6001 16ZM16.0001 7.99996C16.8838 7.99996 17.6001 8.71631 17.6001 9.59996C17.6001 10.4836 16.8838 11.2 16.0001 11.2C15.1165 11.2 14.4001 10.4836 14.4001 9.59996C14.4001 8.71631 15.1165 7.99996 16.0001 7.99996Z" fill="#75787F"/>
</g>
</svg>
