<svg width="32" height="32" viewBox="0 0 32 32" fill="none" xmlns="http://www.w3.org/2000/svg">
<g id="Icons20/Notification">
<path id="Shape" fill-rule="evenodd" clip-rule="evenodd" d="M26.7618 12.5246V20.4934C28.2517 20.7142 29.3975 21.984 29.3975 23.5127V25.1089C29.3975 25.7935 28.8324 26.3503 28.1374 26.3503H20.5855C20.1193 28.4351 18.2308 30 15.9774 30C13.724 30 11.8354 28.4351 11.3692 26.3503H3.81728C3.12258 26.3503 2.55725 25.7935 2.55725 25.1089V23.5127C2.55725 21.984 3.70326 20.7142 5.19291 20.4934V12.5246C5.19291 7.73773 8.42142 3.68058 12.8449 2.35496C15.2105 1.88168 17.3194 1.88168 19.1098 2.35496C23.5333 3.68058 26.7618 7.73773 26.7618 12.5246ZM15.9775 3.89925C11.1512 3.89925 7.22477 7.76844 7.22477 12.5245V20.5342H24.7303V12.5245C24.7303 7.76844 20.8039 3.89925 15.9775 3.89925ZM15.9774 28.1679C14.8546 28.1679 13.8906 27.3166 13.4891 26.351H18.4657C18.0641 27.3166 17.1001 28.1679 15.9774 28.1679ZM4.58895 24.331H27.3658V23.4955C27.3658 22.9157 26.8872 22.4439 26.2988 22.4439H5.65586C5.06751 22.4439 4.58895 22.9157 4.58895 23.4955V24.331Z" fill="#75787F"/>
</g>
</svg>
