<svg width="24" height="24" viewBox="0 0 24 24" fill="none" xmlns="http://www.w3.org/2000/svg">
<g id="Icons16/Setting">
<g id="Group">
<g id="Combined Shape">
<path fill-rule="evenodd" clip-rule="evenodd" d="M4.00377 10.2168C3.8905 10.7734 3.83276 11.3443 3.83276 11.9226C3.83276 12.5008 3.8905 13.0717 4.00377 13.6283L2.74089 14.3839C1.92996 14.8691 1.65084 15.9044 2.10917 16.7271L2.91086 18.1661C2.9188 18.1801 2.92277 18.1871 2.92682 18.1941C2.93088 18.2011 2.93502 18.208 2.94331 18.2219C3.44489 19.0487 4.52642 19.3151 5.35897 18.817L6.53459 18.1136C7.34427 18.8543 8.29266 19.4215 9.32517 19.776V21.2976C9.32517 22.2628 10.1131 23.0453 11.0851 23.0453H12.6518C13.6237 23.0453 14.4117 22.2628 14.4117 21.2976V19.776C15.4442 19.4215 16.3926 18.8543 17.2023 18.1136L18.3779 18.817C18.4058 18.8335 18.4058 18.8335 18.4341 18.8492C19.2845 19.3165 20.3554 19.0107 20.826 18.1661L21.6277 16.7271C22.086 15.9044 21.8069 14.8691 20.996 14.3839L19.7331 13.6283C19.8464 13.0717 19.9041 12.5008 19.9041 11.9226C19.9041 11.3443 19.8464 10.7734 19.7331 10.2168L20.996 9.46123C21.8069 8.97604 22.086 7.9407 21.6277 7.11803L20.826 5.67905C20.8181 5.665 20.8141 5.65798 20.81 5.651C20.806 5.64403 20.8018 5.6371 20.7935 5.62325C20.292 4.79644 19.2104 4.52999 18.3779 5.02812L17.2023 5.7315C16.3926 4.99086 15.4442 4.42365 14.4117 4.0691V2.54757C14.4117 1.58231 13.6237 0.799805 12.6518 0.799805H11.0851C10.1131 0.799805 9.32517 1.58231 9.32517 2.54757V4.0691C8.29266 4.42365 7.34427 4.99086 6.53459 5.7315L5.35897 5.02812C5.34502 5.01989 5.33805 5.01577 5.33103 5.01174C5.324 5.00772 5.31693 5.00377 5.30278 4.99589C4.45231 4.52858 3.38141 4.83444 2.91086 5.67905L2.10917 7.11803C1.65084 7.9407 1.92996 8.97604 2.74089 9.46123L4.00377 10.2168ZM3.34471 15.3793L5.3546 14.1768C5.12644 13.4684 5.00287 12.7104 5.00287 11.9226C5.00287 11.1347 5.12644 10.3768 5.3546 9.66839L3.34471 8.46585C3.07296 8.30326 2.97942 7.95631 3.13301 7.68062L3.9347 6.24165C4.09239 5.95861 4.45125 5.85612 4.73625 6.01271C4.74259 6.0162 4.74887 6.0198 4.75508 6.02352L6.72929 7.2047C7.69784 6.07252 9.00944 5.26268 10.4953 4.95012V2.54758C10.4953 2.22411 10.7593 1.96189 11.085 1.96189H12.6517C12.9775 1.96189 13.2415 2.22411 13.2415 2.54758V4.95012C14.7273 5.26268 16.0389 6.07252 17.0075 7.2047L18.9817 6.02352C19.2607 5.85659 19.6231 5.94588 19.7912 6.22295C19.7949 6.22912 19.7986 6.23535 19.8021 6.24165L20.6038 7.68062C20.7574 7.95631 20.6638 8.30326 20.3921 8.46585L18.3822 9.66839C18.6103 10.3768 18.7339 11.1347 18.7339 11.9226C18.7339 12.7104 18.6103 13.4684 18.3822 14.1768L20.3921 15.3793C20.6638 15.5419 20.7574 15.8888 20.6038 16.1645L19.8021 17.6035C19.6444 17.8865 19.2855 17.989 19.0005 17.8324C18.9942 17.8289 18.9879 17.8253 18.9817 17.8216L17.0075 16.6404C16.0389 17.7726 14.7273 18.5825 13.2415 18.895V21.2976C13.2415 21.621 12.9775 21.8832 12.6517 21.8832H11.085C10.7593 21.8832 10.4953 21.621 10.4953 21.2976V18.895C9.00944 18.5825 7.69784 17.7726 6.72929 16.6404L4.75508 17.8216C4.47609 17.9886 4.11366 17.8993 3.94558 17.6222C3.94324 17.6183 3.94095 17.6145 3.9387 17.6106C3.93735 17.6082 3.93602 17.6059 3.9347 17.6035L3.13301 16.1645C2.97942 15.8888 3.07296 15.5419 3.34471 15.3793Z" fill="#747579"/>
<path d="M4.00377 10.2168L4.10176 10.2368L4.11589 10.1674L4.05512 10.131L4.00377 10.2168ZM4.00377 13.6283L4.05512 13.7141L4.11589 13.6778L4.10176 13.6084L4.00377 13.6283ZM2.74089 14.3839L2.68955 14.2981H2.68955L2.74089 14.3839ZM2.10917 16.7271L2.19652 16.6784L2.10917 16.7271ZM2.91086 18.1661L2.8235 18.2147L2.8238 18.2153L2.91086 18.1661ZM2.92682 18.1941L3.01326 18.1438L3.01326 18.1438L2.92682 18.1941ZM2.94331 18.2219L2.85749 18.2732L2.85781 18.2737L2.94331 18.2219ZM5.35897 18.817L5.30762 18.7312L5.35897 18.817ZM6.53459 18.1136L6.60208 18.0398L6.54714 17.9896L6.48324 18.0278L6.53459 18.1136ZM9.32517 19.776H9.42517V19.7046L9.35765 19.6814L9.32517 19.776ZM14.4117 19.776L14.3792 19.6814L14.3117 19.7046V19.776H14.4117ZM17.2023 18.1136L17.2536 18.0278L17.1897 17.9896L17.1348 18.0398L17.2023 18.1136ZM18.3779 18.817L18.3265 18.9028L18.3271 18.9031L18.3779 18.817ZM18.4341 18.8492L18.3854 18.9366L18.3859 18.9369L18.4341 18.8492ZM20.826 18.1661L20.7386 18.1174H20.7386L20.826 18.1661ZM21.6277 16.7271L21.715 16.7758H21.715L21.6277 16.7271ZM20.996 14.3839L21.0473 14.2981H21.0473L20.996 14.3839ZM19.7331 13.6283L19.6351 13.6084L19.621 13.6778L19.6817 13.7141L19.7331 13.6283ZM19.7331 10.2168L19.6817 10.131L19.621 10.1674L19.6351 10.2368L19.7331 10.2168ZM20.996 9.46123L20.9446 9.37541L20.996 9.46123ZM21.6277 7.11803L21.715 7.06936H21.715L21.6277 7.11803ZM20.826 5.67905L20.9134 5.63038L20.9131 5.62984L20.826 5.67905ZM20.81 5.651L20.7236 5.70128L20.7236 5.70129L20.81 5.651ZM20.7935 5.62325L20.8794 5.57191L20.879 5.57138L20.7935 5.62325ZM18.3779 5.02812L18.4292 5.11393L18.3779 5.02812ZM17.2023 5.7315L17.1348 5.80529L17.1897 5.85554L17.2536 5.81731L17.2023 5.7315ZM14.4117 4.0691H14.3117V4.14049L14.3792 4.16368L14.4117 4.0691ZM9.32517 4.0691L9.35765 4.16368L9.42517 4.14049V4.0691H9.32517ZM6.53459 5.7315L6.48324 5.81731L6.54714 5.85554L6.60208 5.80529L6.53459 5.7315ZM5.35897 5.02812L5.41031 4.9423L5.40978 4.94199L5.35897 5.02812ZM5.33103 5.01174L5.28127 5.09849L5.28127 5.09849L5.33103 5.01174ZM5.30278 4.99589L5.35147 4.90854L5.35094 4.90824L5.30278 4.99589ZM2.91086 5.67905L2.99821 5.72772L2.91086 5.67905ZM2.10917 7.11803L2.02181 7.06936H2.02181L2.10917 7.11803ZM2.74089 9.46123L2.79223 9.37541H2.79223L2.74089 9.46123ZM5.3546 14.1768L5.40595 14.2626L5.47416 14.2218L5.44979 14.1461L5.3546 14.1768ZM3.34471 15.3793L3.29336 15.2935H3.29336L3.34471 15.3793ZM5.3546 9.66839L5.44979 9.69905L5.47416 9.62339L5.40595 9.58257L5.3546 9.66839ZM3.34471 8.46585L3.29336 8.55166L3.34471 8.46585ZM3.13301 7.68062L3.22037 7.72929L3.13301 7.68062ZM3.9347 6.24165L3.84734 6.19298L3.9347 6.24165ZM4.73625 6.01271L4.68809 6.10036L4.6881 6.10036L4.73625 6.01271ZM4.75508 6.02352L4.80642 5.9377L4.80642 5.9377L4.75508 6.02352ZM6.72929 7.2047L6.67794 7.29052L6.75039 7.33387L6.80527 7.26971L6.72929 7.2047ZM10.4953 4.95012L10.5159 5.04798L10.5953 5.03128V4.95012H10.4953ZM13.2415 4.95012H13.1415V5.03128L13.2209 5.04798L13.2415 4.95012ZM17.0075 7.2047L16.9315 7.26971L16.9864 7.33387L17.0588 7.29052L17.0075 7.2047ZM18.9817 6.02352L18.9304 5.9377L18.9304 5.9377L18.9817 6.02352ZM19.7912 6.22295L19.8767 6.17108L19.8767 6.17108L19.7912 6.22295ZM19.8021 6.24165L19.8894 6.19298V6.19298L19.8021 6.24165ZM20.6038 7.68062L20.5164 7.72929L20.6038 7.68062ZM20.3921 8.46585L20.4434 8.55166H20.4434L20.3921 8.46585ZM18.3822 9.66839L18.3308 9.58257L18.2626 9.62339L18.287 9.69905L18.3822 9.66839ZM18.3822 14.1768L18.287 14.1461L18.2626 14.2218L18.3308 14.2626L18.3822 14.1768ZM20.3921 15.3793L20.4434 15.2935H20.4434L20.3921 15.3793ZM20.6038 16.1645L20.6911 16.2132L20.6038 16.1645ZM19.8021 17.6035L19.7147 17.5548H19.7147L19.8021 17.6035ZM19.0005 17.8324L18.9524 17.9201L19.0005 17.8324ZM18.9817 17.8216L18.9304 17.9074H18.9304L18.9817 17.8216ZM17.0075 16.6404L17.0588 16.5546L16.9864 16.5113L16.9315 16.5754L17.0075 16.6404ZM13.2415 18.895L13.2209 18.7972L13.1415 18.8139V18.895H13.2415ZM10.4953 18.895H10.5953V18.8139L10.5159 18.7972L10.4953 18.895ZM6.72929 16.6404L6.80527 16.5754L6.75039 16.5113L6.67794 16.5546L6.72929 16.6404ZM4.75508 17.8216L4.80642 17.9074H4.80642L4.75508 17.8216ZM3.94558 17.6222L4.03107 17.5703L4.03107 17.5703L3.94558 17.6222ZM3.9387 17.6106L3.85203 17.6604L3.85203 17.6604L3.9387 17.6106ZM3.9347 17.6035L4.02206 17.5548L4.02206 17.5548L3.9347 17.6035ZM3.13301 16.1645L3.04565 16.2132L3.13301 16.1645ZM3.93276 11.9226C3.93276 11.3509 3.98983 10.7868 4.10176 10.2368L3.90578 10.1969C3.79116 10.7601 3.73276 11.3376 3.73276 11.9226H3.93276ZM4.10176 13.6084C3.98983 13.0584 3.93276 12.4942 3.93276 11.9226H3.73276C3.73276 12.5075 3.79116 13.0851 3.90578 13.6482L4.10176 13.6084ZM2.79223 14.4697L4.05512 13.7141L3.95243 13.5425L2.68955 14.2981L2.79223 14.4697ZM2.19652 16.6784C1.76464 15.9032 2.0274 14.9273 2.79223 14.4697L2.68955 14.2981C1.83253 14.8108 1.53703 15.9056 2.02181 16.7758L2.19652 16.6784ZM2.99821 18.1174L2.19652 16.6784L2.02181 16.7758L2.8235 18.2147L2.99821 18.1174ZM3.01326 18.1438C3.00959 18.1375 3.00597 18.1311 2.99791 18.1169L2.8238 18.2153C2.83162 18.2291 2.83594 18.2368 2.84038 18.2444L3.01326 18.1438ZM3.02912 18.1705C3.02072 18.1565 3.01694 18.1502 3.01326 18.1438L2.84038 18.2444C2.84482 18.252 2.84932 18.2596 2.85749 18.2732L3.02912 18.1705ZM5.30762 18.7312C4.522 19.2012 3.50171 18.9495 3.02881 18.17L2.85781 18.2737C3.38807 19.1478 4.53083 19.429 5.41031 18.9028L5.30762 18.7312ZM6.48324 18.0278L5.30762 18.7312L5.41031 18.9028L6.58593 18.1994L6.48324 18.0278ZM9.35765 19.6814C8.33835 19.3314 7.40184 18.7714 6.60208 18.0398L6.46709 18.1874C7.28671 18.9371 8.24696 19.5115 9.2927 19.8706L9.35765 19.6814ZM9.42517 21.2976V19.776H9.22517V21.2976H9.42517ZM11.0851 22.9453C10.1677 22.9453 9.42517 22.2069 9.42517 21.2976H9.22517C9.22517 22.3187 10.0585 23.1453 11.0851 23.1453V22.9453ZM12.6518 22.9453H11.0851V23.1453H12.6518V22.9453ZM14.3117 21.2976C14.3117 22.2069 13.5692 22.9453 12.6518 22.9453V23.1453C13.6783 23.1453 14.5117 22.3187 14.5117 21.2976H14.3117ZM14.3117 19.776V21.2976H14.5117V19.776H14.3117ZM17.1348 18.0398C16.335 18.7714 15.3985 19.3314 14.3792 19.6814L14.4442 19.8706C15.4899 19.5115 16.4501 18.9371 17.2698 18.1874L17.1348 18.0398ZM18.4292 18.7312L17.2536 18.0278L17.1509 18.1994L18.3265 18.9028L18.4292 18.7312ZM18.4828 18.7619C18.4552 18.7465 18.4559 18.7469 18.4287 18.7309L18.3271 18.9031C18.3557 18.92 18.3564 18.9204 18.3854 18.9366L18.4828 18.7619ZM20.7386 18.1174C20.295 18.9137 19.2848 19.2026 18.4822 18.7616L18.3859 18.9369C19.2843 19.4305 20.4159 19.1077 20.9134 18.2147L20.7386 18.1174ZM21.5403 16.6784L20.7386 18.1174L20.9134 18.2147L21.715 16.7758L21.5403 16.6784ZM20.9446 14.4697C21.7095 14.9273 21.9722 15.9032 21.5403 16.6784L21.715 16.7758C22.1998 15.9056 21.9043 14.8108 21.0473 14.2981L20.9446 14.4697ZM19.6817 13.7141L20.9446 14.4697L21.0473 14.2981L19.7844 13.5425L19.6817 13.7141ZM19.8041 11.9226C19.8041 12.4942 19.747 13.0584 19.6351 13.6084L19.8311 13.6482C19.9457 13.0851 20.0041 12.5075 20.0041 11.9226H19.8041ZM19.6351 10.2368C19.747 10.7868 19.8041 11.3509 19.8041 11.9226H20.0041C20.0041 11.3376 19.9457 10.7601 19.8311 10.1969L19.6351 10.2368ZM20.9446 9.37541L19.6817 10.131L19.7844 10.3026L21.0473 9.54704L20.9446 9.37541ZM21.5403 7.1667C21.9722 7.9419 21.7095 8.91781 20.9446 9.37541L21.0473 9.54704C21.9043 9.03428 22.1998 7.9395 21.715 7.06936L21.5403 7.1667ZM20.7386 5.72772L21.5403 7.1667L21.715 7.06936L20.9134 5.63038L20.7386 5.72772ZM20.7236 5.70129C20.7273 5.7076 20.7309 5.714 20.7389 5.72826L20.9131 5.62984C20.9052 5.61601 20.9009 5.60836 20.8965 5.60072L20.7236 5.70129ZM20.7077 5.67459C20.7161 5.68864 20.7199 5.69496 20.7236 5.70128L20.8965 5.60073C20.892 5.5931 20.8875 5.58557 20.8794 5.57191L20.7077 5.67459ZM18.4292 5.11393C19.2148 4.64388 20.2351 4.89558 20.708 5.67512L20.879 5.57138C20.3488 4.6973 19.206 4.4161 18.3265 4.9423L18.4292 5.11393ZM17.2536 5.81731L18.4292 5.11393L18.3265 4.9423L17.1509 5.64569L17.2536 5.81731ZM14.3792 4.16368C15.3985 4.51369 16.335 5.07373 17.1348 5.80529L17.2698 5.65771C16.4501 4.90799 15.4899 4.33361 14.4442 3.97452L14.3792 4.16368ZM14.3117 2.54757V4.0691H14.5117V2.54757H14.3117ZM12.6518 0.899805C13.5692 0.899805 14.3117 1.63819 14.3117 2.54757H14.5117C14.5117 1.52643 13.6783 0.699805 12.6518 0.699805V0.899805ZM11.0851 0.899805H12.6518V0.699805H11.0851V0.899805ZM9.42517 2.54757C9.42517 1.63819 10.1677 0.899805 11.0851 0.899805V0.699805C10.0585 0.699805 9.22517 1.52643 9.22517 2.54757H9.42517ZM9.42517 4.0691V2.54757H9.22517V4.0691H9.42517ZM6.60208 5.80529C7.40184 5.07373 8.33835 4.51369 9.35765 4.16368L9.2927 3.97452C8.24696 4.33361 7.28671 4.90799 6.46709 5.65771L6.60208 5.80529ZM5.30762 5.11393L6.48324 5.81731L6.58593 5.64569L5.41031 4.9423L5.30762 5.11393ZM5.28127 5.09849C5.28764 5.10214 5.29401 5.1059 5.30815 5.11424L5.40978 4.94199C5.39604 4.93388 5.38846 4.9294 5.38078 4.925L5.28127 5.09849ZM5.25409 5.08323C5.26844 5.09123 5.27489 5.09483 5.28127 5.09849L5.38078 4.925C5.37311 4.9206 5.36542 4.91632 5.35147 4.90854L5.25409 5.08323ZM2.99821 5.72772C3.44183 4.93146 4.45205 4.64254 5.25462 5.08353L5.35094 4.90824C4.45256 4.41462 3.32098 4.73743 2.8235 5.63038L2.99821 5.72772ZM2.19652 7.1667L2.99821 5.72772L2.8235 5.63038L2.02181 7.06936L2.19652 7.1667ZM2.79223 9.37541C2.0274 8.91781 1.76464 7.9419 2.19652 7.1667L2.02181 7.06936C1.53703 7.9395 1.83253 9.03428 2.68955 9.54704L2.79223 9.37541ZM4.05512 10.131L2.79223 9.37541L2.68955 9.54704L3.95243 10.3026L4.05512 10.131ZM5.30326 14.0909L3.29336 15.2935L3.39605 15.4651L5.40595 14.2626L5.30326 14.0909ZM4.90287 11.9226C4.90287 12.7209 5.0281 13.4892 5.25942 14.2074L5.44979 14.1461C5.22479 13.4475 5.10287 12.6999 5.10287 11.9226H4.90287ZM5.25942 9.63773C5.0281 10.3559 4.90287 11.1242 4.90287 11.9226H5.10287C5.10287 11.1452 5.22479 10.3976 5.44979 9.69905L5.25942 9.63773ZM3.29336 8.55166L5.30326 9.7542L5.40595 9.58257L3.39605 8.38003L3.29336 8.55166ZM3.04565 7.63196C2.86562 7.95511 2.97552 8.36149 3.29336 8.55166L3.39605 8.38003C3.1704 8.24502 3.09323 7.95751 3.22037 7.72929L3.04565 7.63196ZM3.84734 6.19298L3.04565 7.63196L3.22037 7.72929L4.02206 6.29032L3.84734 6.19298ZM4.78441 5.92507C4.45151 5.74216 4.03196 5.8616 3.84734 6.19298L4.02206 6.29032C4.15281 6.05563 4.451 5.97008 4.68809 6.10036L4.78441 5.92507ZM4.80642 5.9377C4.79916 5.93336 4.79182 5.92915 4.7844 5.92507L4.6881 6.10036C4.69336 6.10325 4.69858 6.10624 4.70374 6.10933L4.80642 5.9377ZM6.78063 7.11889L4.80642 5.9377L4.70374 6.10933L6.67794 7.29052L6.78063 7.11889ZM10.4747 4.85226C8.96621 5.16959 7.63547 5.99159 6.6533 7.1397L6.80527 7.26971C7.76021 6.15345 9.05267 5.35578 10.5159 5.04798L10.4747 4.85226ZM10.3953 2.54758V4.95012H10.5953V2.54758H10.3953ZM11.085 1.86189C10.7048 1.86189 10.3953 2.16823 10.3953 2.54758H10.5953C10.5953 2.27999 10.8139 2.06189 11.085 2.06189V1.86189ZM12.6517 1.86189H11.085V2.06189H12.6517V1.86189ZM13.3415 2.54758C13.3415 2.16823 13.032 1.86189 12.6517 1.86189V2.06189C12.9229 2.06189 13.1415 2.27999 13.1415 2.54758H13.3415ZM13.3415 4.95012V2.54758H13.1415V4.95012H13.3415ZM17.0835 7.1397C16.1013 5.99159 14.7706 5.16959 13.2621 4.85226L13.2209 5.04798C14.6841 5.35578 15.9766 6.15345 16.9315 7.26971L17.0835 7.1397ZM18.9304 5.9377L16.9562 7.11889L17.0588 7.29052L19.033 6.10933L18.9304 5.9377ZM19.8767 6.17108C19.6799 5.84674 19.2563 5.7427 18.9304 5.9377L19.033 6.10933C19.2651 5.97048 19.5663 6.04502 19.7057 6.27482L19.8767 6.17108ZM19.8894 6.19298C19.8853 6.1856 19.8811 6.1783 19.8767 6.17108L19.7057 6.27481C19.7088 6.27993 19.7118 6.2851 19.7147 6.29032L19.8894 6.19298ZM20.6911 7.63196L19.8894 6.19298L19.7147 6.29032L20.5164 7.72929L20.6911 7.63196ZM20.4434 8.55166C20.7613 8.36149 20.8712 7.95511 20.6911 7.63196L20.5164 7.72929C20.6436 7.95751 20.5664 8.24502 20.3407 8.38003L20.4434 8.55166ZM18.4335 9.7542L20.4434 8.55166L20.3407 8.38003L18.3308 9.58257L18.4335 9.7542ZM18.8339 11.9226C18.8339 11.1242 18.7087 10.3559 18.4774 9.63773L18.287 9.69905C18.512 10.3976 18.6339 11.1452 18.6339 11.9226H18.8339ZM18.4774 14.2074C18.7087 13.4892 18.8339 12.7209 18.8339 11.9226H18.6339C18.6339 12.6999 18.512 13.4475 18.287 14.1461L18.4774 14.2074ZM20.4434 15.2935L18.4335 14.0909L18.3308 14.2626L20.3407 15.4651L20.4434 15.2935ZM20.6911 16.2132C20.8712 15.89 20.7613 15.4837 20.4434 15.2935L20.3407 15.4651C20.5664 15.6001 20.6436 15.8876 20.5164 16.1158L20.6911 16.2132ZM19.8894 17.6522L20.6911 16.2132L20.5164 16.1158L19.7147 17.5548L19.8894 17.6522ZM18.9524 17.9201C19.2853 18.103 19.7048 17.9835 19.8894 17.6522L19.7147 17.5548C19.584 17.7895 19.2858 17.8751 19.0487 17.7448L18.9524 17.9201ZM18.9304 17.9074C18.9376 17.9118 18.945 17.916 18.9524 17.9201L19.0487 17.7448C19.0434 17.7419 19.0382 17.7389 19.033 17.7358L18.9304 17.9074ZM16.9562 16.7263L18.9304 17.9074L19.033 17.7358L17.0588 16.5546L16.9562 16.7263ZM13.2621 18.9929C14.7706 18.6756 16.1013 17.8535 17.0835 16.7054L16.9315 16.5754C15.9766 17.6917 14.6841 18.4894 13.2209 18.7972L13.2621 18.9929ZM13.3415 21.2976V18.895H13.1415V21.2976H13.3415ZM12.6517 21.9832C13.032 21.9832 13.3415 21.6769 13.3415 21.2976H13.1415C13.1415 21.5651 12.9229 21.7832 12.6517 21.7832V21.9832ZM11.085 21.9832H12.6517V21.7832H11.085V21.9832ZM10.3953 21.2976C10.3953 21.6769 10.7048 21.9832 11.085 21.9832V21.7832C10.8139 21.7832 10.5953 21.5651 10.5953 21.2976H10.3953ZM10.3953 18.895V21.2976H10.5953V18.895H10.3953ZM6.6533 16.7054C7.63547 17.8535 8.96621 18.6756 10.4747 18.9929L10.5159 18.7972C9.05267 18.4894 7.76021 17.6917 6.80527 16.5754L6.6533 16.7054ZM4.80642 17.9074L6.78063 16.7263L6.67794 16.5546L4.70374 17.7358L4.80642 17.9074ZM3.86008 17.6741C4.05684 17.9984 4.4805 18.1024 4.80642 17.9074L4.70374 17.7358C4.47167 17.8747 4.17048 17.8001 4.03107 17.5703L3.86008 17.6741ZM3.85203 17.6604C3.85466 17.665 3.85734 17.6696 3.86008 17.6741L4.03107 17.5703C4.02913 17.5671 4.02723 17.5639 4.02537 17.5607L3.85203 17.6604ZM3.84734 17.6522C3.84888 17.6549 3.85044 17.6577 3.85203 17.6604L4.02537 17.5607C4.02425 17.5587 4.02315 17.5568 4.02206 17.5548L3.84734 17.6522ZM3.04565 16.2132L3.84734 17.6522L4.02206 17.5548L3.22037 16.1158L3.04565 16.2132ZM3.29336 15.2935C2.97552 15.4837 2.86562 15.89 3.04565 16.2132L3.22037 16.1158C3.09323 15.8876 3.1704 15.6001 3.39605 15.4651L3.29336 15.2935Z" fill="#747579"/>
</g>
<g id="Oval Copy 19">
<path fill-rule="evenodd" clip-rule="evenodd" d="M7.52197 11.9227C7.52197 14.3066 9.46786 16.239 11.8682 16.239C14.2686 16.239 16.2145 14.3066 16.2145 11.9227C16.2145 9.53892 14.2686 7.60645 11.8682 7.60645C9.46786 7.60645 7.52197 9.53892 7.52197 11.9227ZM15.0444 11.9227C15.0444 13.6648 13.6224 15.077 11.8683 15.077C10.1141 15.077 8.69214 13.6648 8.69214 11.9227C8.69214 10.1807 10.1141 8.76852 11.8683 8.76852C13.6224 8.76852 15.0444 10.1807 15.0444 11.9227Z" fill="#747579"/>
<path d="M11.8682 16.139C9.52244 16.139 7.62197 14.2507 7.62197 11.9227H7.42197C7.42197 14.3624 9.41329 16.339 11.8682 16.339V16.139ZM16.1145 11.9227C16.1145 14.2507 14.214 16.139 11.8682 16.139V16.339C14.3232 16.339 16.3145 14.3624 16.3145 11.9227H16.1145ZM11.8682 7.70645C14.214 7.70645 16.1145 9.59479 16.1145 11.9227H16.3145C16.3145 9.48304 14.3232 7.50645 11.8682 7.50645V7.70645ZM7.62197 11.9227C7.62197 9.59479 9.52244 7.70645 11.8682 7.70645V7.50645C9.41329 7.50645 7.42197 9.48304 7.42197 11.9227H7.62197ZM11.8683 15.177C13.677 15.177 15.1444 13.7206 15.1444 11.9227H14.9444C14.9444 13.6089 13.5678 14.977 11.8683 14.977V15.177ZM8.59214 11.9227C8.59214 13.7206 10.0596 15.177 11.8683 15.177V14.977C10.1687 14.977 8.79214 13.6089 8.79214 11.9227H8.59214ZM11.8683 8.66852C10.0596 8.66852 8.59214 10.1248 8.59214 11.9227H8.79214C8.79214 10.2366 10.1687 8.86852 11.8683 8.86852V8.66852ZM15.1444 11.9227C15.1444 10.1248 13.677 8.66852 11.8683 8.66852V8.86852C13.5678 8.86852 14.9444 10.2366 14.9444 11.9227H15.1444Z" fill="#747579"/>
</g>
</g>
</g>
</svg>
