<svg width="32" height="32" viewBox="0 0 32 32" fill="none" xmlns="http://www.w3.org/2000/svg">
<g id="Icons20/Task">
<path id="Union" fill-rule="evenodd" clip-rule="evenodd" d="M21.124 5.8469H26.9501C27.5471 5.8469 28.0357 6.28866 28.0357 6.82858V28.0183C28.0357 28.5582 27.5471 29 26.9501 29H4.04984C3.45276 29 2.96423 28.5582 2.96423 28.0183V6.82858C2.96423 6.28866 3.45276 5.8469 4.04984 5.8469H6.794C7.39109 5.8469 7.87961 6.28866 7.87961 6.82858C7.87961 7.36851 7.39109 7.81027 6.794 7.81027H5.13544V27.0366H25.8705V7.81027H20.0444C19.4473 7.81027 18.9588 7.36851 18.9588 6.82858V4.96338H12.0532V8.16477H17.6742C18.2713 8.16477 18.7598 8.60653 18.7598 9.14646C18.7598 9.68639 18.2713 10.1281 17.6742 10.1281H10.9676C10.3705 10.1281 9.88195 9.68639 9.88195 9.14646V3.98169C9.88195 3.44176 10.3705 3 10.9676 3H20.0384C20.6355 3 21.124 3.44176 21.124 3.98169V5.8469ZM19.1183 14.6279C19.4989 14.2526 20.1101 14.2526 20.4854 14.6333C20.8606 15.0139 20.8606 15.625 20.48 16.0003L15.2959 21.1415C15.1083 21.3292 14.8617 21.4203 14.615 21.4203C14.3631 21.4203 14.1165 21.3238 13.9288 21.1362L11.6022 18.7934C11.2269 18.4128 11.2269 17.8016 11.6075 17.4263C11.9882 17.0511 12.5993 17.0511 12.9746 17.4317L14.6204 19.0883L19.1183 14.6279Z" fill="#75787F"/>
</g>
</svg>
