<svg width="18" height="24" viewBox="0 0 18 24" fill="none" xmlns="http://www.w3.org/2000/svg">
<path d="M16.2196 16.0266L12.6576 13.7114L14.0005 11.2494C14.3135 10.6745 14.4778 10.0303 14.4783 9.37569V5.47826C14.4783 4.02533 13.9011 2.63192 12.8737 1.60454C11.8463 0.577172 10.4529 0 9 0C7.54708 0 6.15366 0.577172 5.12629 1.60454C4.09892 2.63192 3.52174 4.02533 3.52174 5.47826V9.37569C3.52223 10.0304 3.68648 10.6745 3.99953 11.2495L5.34243 13.7114L1.78044 16.0266C1.23301 16.381 0.783191 16.867 0.47215 17.4402C0.161109 18.0134 -0.00122351 18.6554 6.94313e-06 19.3075V23.4782H18V19.3075C18.0012 18.6554 17.8389 18.0134 17.5278 17.4402C17.2168 16.867 16.767 16.381 16.2196 16.0266V16.0266ZM16.4348 21.913H1.56522V19.3075C1.56449 18.9162 1.6619 18.531 1.84853 18.1871C2.03516 17.8432 2.30506 17.5516 2.63353 17.339L7.41038 14.234L5.37364 10.5C5.18581 10.155 5.08726 9.76849 5.08696 9.37569V5.47826C5.08696 4.44045 5.49923 3.44516 6.23306 2.71132C6.9669 1.97748 7.9622 1.56522 9 1.56522C10.0378 1.56522 11.0331 1.97748 11.7669 2.71132C12.5008 3.44516 12.913 4.44045 12.913 5.47826V9.37569C12.9127 9.76849 12.8142 10.155 12.6264 10.5L10.5897 14.234L15.3666 17.339C15.6951 17.5516 15.9649 17.8432 16.1515 18.1871C16.3381 18.531 16.4355 18.9163 16.4348 19.3075V21.913Z" fill="black"/>
</svg>
